<?xml version="1.0" encoding="utf-8"?>
<!-- Generator: Adobe Illustrator 22.1.0, SVG Export Plug-In . SVG Version: 6.00 Build 0)  -->
<svg version="1.1" id="Layer_1" xmlns="http://www.w3.org/2000/svg" xmlns:xlink="http://www.w3.org/1999/xlink" x="0px" y="0px"
	 viewBox="0 0 640 480" style="enable-background:new 0 0 640 480;" xml:space="preserve">
<style type="text/css">
	.st0{fill:none;}
</style>
<g>
	<path class="st0" d="M282.8,144.2l-55.7-51.4v93.1C240.7,166.8,260.2,152,282.8,144.2z"/>
	<path class="st0" d="M366.9,276.6c4.1,2,13.7,1.4,26-4.8c7.7-3.8,11.3-14.1,9.7-20.8c-0.4-1.8-1.7-4.9-5-4.9
		c-7.6,0-14.1,0.8-19.7,2.3c0.2,0,0.4,0,0.6,0c5.2,0,9.5,6.2,9.5,13.8s-4.3,13.8-9.5,13.8s-9.5-6.2-9.5-13.8
		c0-5.9,2.6-10.9,6.2-12.9c-2.5,0.9-4.8,1.9-6.8,3.1c-8.7,5.2-9.9,13.3-10.1,15.6c0,0,0,0,0,0C358.4,268,363,274.6,366.9,276.6z"/>
	<ellipse class="st0" cx="378.5" cy="262.1" rx="7.5" ry="11.8"/>
	<path class="st0" d="M419,195.4l20.8-105l-62.8,62.8C394.4,163.3,408.9,177.9,419,195.4z"/>
	<ellipse class="st0" cx="270.1" cy="262.1" rx="9.6" ry="11.8"/>
	<path class="st0" d="M321.7,319.3c-2.9-1.5-13.3-0.7-18.9-0.1c2.5,3,8.7,10.1,13.5,13.3c2.5,1.6,4,3,5,4.4c1.1-2.8,3-6.3,5.7-7.7
		c2.9-1.5,6.2-6.7,7.6-9.4c-1.8,0.3-4.3,0.5-6.7,0.5C325.6,320.4,323.3,320.1,321.7,319.3z"/>
	<path class="st0" d="M360.3,329.2c-2.3,0.5-4.6,1-6.9,1.7c-0.5,0.1-1.1-0.2-1.2-0.7c-0.1-0.5,0.2-1.1,0.7-1.2
		c2.3-0.6,4.6-1.2,7-1.7c15-3.2,30.2-3.4,43.8-0.8C422,305.9,432,279.7,432,252c0-29.9-11.7-58-32.8-79.2
		C378,151.7,349.9,140,320,140s-58,11.7-79.2,32.8C219.7,194,208,222.1,208,252c0,27,9.5,52.6,26.9,72.9c14-3,29.8-2.9,45.5,0.4
		c2.4,0.5,4.7,1.1,7,1.7c0.5,0.1,0.8,0.7,0.7,1.2c-0.1,0.5-0.7,0.9-1.2,0.7c-2.2-0.6-4.6-1.2-6.9-1.7c-15.3-3.2-30.4-3.2-43.5-0.6
		c1.4,1.6,2.8,3.1,4.3,4.6c0.9,0.9,1.8,1.8,2.8,2.7c14-4.6,29.7-6.1,45.5-4.3c2.7,0.3,5.4,0.7,8,1.2c0.5,0.1,0.9,0.6,0.8,1.2
		c-0.1,0.5-0.6,0.9-1.2,0.8c-2.6-0.5-5.2-0.9-7.8-1.2c-15.1-1.7-30.1-0.3-43.5,3.9c3,2.7,6.2,5.3,9.5,7.6c11-4.3,23.2-6.6,35.7-6.6
		c2.4,0,4.9,0.1,7.3,0.3c0.6,0,1,0.5,0.9,1.1s-0.5,1-1.1,0.9c-2.3-0.2-4.7-0.2-7.1-0.2c-12,0-23.5,2.2-33.7,6
		c3.6,2.5,7.3,4.7,11.2,6.7c6.5-2.9,13.6-5,20.9-6.2c2-0.3,4-0.6,6.1-0.8c0.6-0.1,1,0.4,1.1,0.9s-0.4,1-0.9,1.1
		c-2,0.2-4,0.4-5.9,0.8c-6.7,1.1-13,3-18.9,5.5C285.6,360,302.5,364,320,364c16.7,0,32.9-3.6,47.6-10.6c-5.2-2-10.7-3.5-16.5-4.5
		c-2-0.3-3.9-0.6-5.9-0.8c-0.5-0.1-1-0.5-0.9-1.1c0.1-0.5,0.5-1,1.1-0.9c2,0.2,4,0.5,6.1,0.8c6.5,1.1,12.8,2.9,18.6,5.3
		c3.9-1.9,7.7-4.1,11.3-6.5c-9.7-3.3-20.4-5.2-31.5-5.2c-2.4,0-4.8,0.1-7.1,0.2c-0.5,0-1-0.4-1.1-0.9c0-0.6,0.4-1,0.9-1.1
		c2.4-0.2,4.8-0.3,7.3-0.3c11.7,0,23.2,2,33.7,5.8c3.3-2.3,6.5-4.8,9.6-7.4c-13-3.7-27.3-4.9-41.6-3.3c-2.6,0.3-5.3,0.7-7.8,1.2
		c-0.5,0.1-1.1-0.3-1.2-0.8c-0.1-0.5,0.3-1.1,0.8-1.2c2.6-0.5,5.3-0.9,8-1.2c15-1.7,30-0.4,43.6,3.7c1.5-1.3,2.9-2.7,4.3-4.1
		c1-1,1.9-1.9,2.8-2.9C389.3,326,374.9,326.1,360.3,329.2z M349.7,290.1l-11.9,27.7c0.1,0.1,0.2,0.3,0.2,0.4
		c0.1,0.5-0.2,1.1-0.8,1.2c0,0-0.1,0-0.1,0l-0.2,0.4c-0.2,0.4-4.5,8.9-9,11.1c-2.7,1.3-4.6,5.9-5.5,8.7c0.2,1.3,0.2,2.8,0,4.6
		c0.5,3.1,1.9,7.2,5.3,8.3c6.2,2.1,20.9,4.2,21.1,4.2c0.5,0.1,0.9,0.6,0.8,1.1c-0.1,0.5-0.5,0.9-1,0.9c0,0-0.1,0-0.1,0
		c-0.6-0.1-15-2.2-21.4-4.3c-2.8-0.9-4.5-3.2-5.5-5.6c-1.6,5.7-6,6.8-12.8,8.5l-1.3,0.3c-2.9,0.7-5.6,1-7.9,1c-4.5,0-7.4-0.9-7.5-1
		c-0.5-0.2-0.8-0.7-0.6-1.3c0.2-0.5,0.7-0.8,1.3-0.6c0.1,0,6.2,2,14.3,0l1.3-0.3c7.7-1.9,10.8-2.7,11.8-8.8c0.1-0.8,0.2-1.6,0.3-2.3
		c-0.3-1.9-0.3-3.4-0.3-3.6l0-0.2c0-0.1,0.1-0.4,0.2-0.9c-0.5-1.9-2-3.4-5.1-5.5c-5.8-3.8-13.1-12.6-14.8-14.7l-0.3,0l-0.2-0.9
		c-0.3-1-6.4-25.8-6.4-38.5c0-1.3-0.1-2.7-0.3-4c-7,3.9-24.5,5-35.4-1.5c-11-6.6-11.1-25.6-11.1-26.4v-0.7l0.6-0.3
		c0.9-0.4,22-8.6,30.8,0.2c6.6,6.6,14.4,15.5,16.7,26.5c0.4,2,0.6,4.1,0.6,6.1c0,11.2,5,32.6,6.1,37.2c3.8-0.4,17-1.8,20.9,0.2
		c2.9,1.4,9.6,0.7,13.1,0.1l12.1-28.3l8.4-21.1c0.1-1.6,0.8-11.5,11.1-17.7c7.2-4.3,17.4-6.5,30.3-6.5c3.4,0,6,2.4,6.9,6.5
		c1.8,7.6-2.1,18.7-10.7,23.1c-13.8,6.9-23.6,6.9-27.8,4.8c-3.3-1.7-6.8-5.9-8.5-8.1L349.7,290.1z"/>
	<path class="st0" d="M248.8,249c0.1,3.4,1.2,18.6,10.1,24c10.3,6.2,27.9,5.1,34,1.1c-2.3-10.3-9.7-18.8-16-25.1
		C269.7,241.8,252.3,247.7,248.8,249z M281.7,262.1c0,7.6-5.2,13.8-11.6,13.8s-11.6-6.2-11.6-13.8s5.2-13.8,11.6-13.8
		S281.7,254.5,281.7,262.1z"/>
	<path d="M366.1,278.4c4.2,2.1,14,2.1,27.8-4.8c8.7-4.3,12.5-15.4,10.7-23.1c-1-4.1-3.5-6.5-6.9-6.5c-12.9,0-23.1,2.2-30.3,6.5
		c-10.3,6.2-11.1,16.1-11.1,17.7l-8.4,21.1l-12.1,28.3c-3.5,0.6-10.2,1.3-13.1-0.1c-4-2-17.1-0.6-20.9-0.2c-1.1-4.5-6.1-26-6.1-37.2
		c0-2-0.2-4.1-0.6-6.1c-2.2-11-10.1-19.9-16.7-26.5c-8.9-8.9-30-0.6-30.8-0.2l-0.6,0.3v0.7c0,0.8,0.1,19.8,11.1,26.4
		c10.9,6.5,28.3,5.4,35.4,1.5c0.2,1.3,0.3,2.7,0.3,4c0,12.7,6.1,37.5,6.4,38.5l0.2,0.9l0.3,0c1.7,2.1,9,10.8,14.8,14.7
		c3.2,2.1,4.6,3.5,5.1,5.5c-0.1,0.5-0.2,0.8-0.2,0.9l0,0.2c0,0.2,0,1.6,0.3,3.6c-0.1,0.7-0.2,1.5-0.3,2.3c-0.9,6.1-4.1,6.9-11.8,8.8
		l-1.3,0.3c-8.1,2-14.3,0-14.3,0c-0.5-0.2-1.1,0.1-1.3,0.6c-0.2,0.5,0.1,1.1,0.6,1.3c0.2,0.1,3.1,1,7.5,1c2.3,0,5-0.2,7.9-1l1.3-0.3
		c6.9-1.7,11.3-2.8,12.8-8.5c1,2.4,2.7,4.7,5.5,5.6c6.4,2.1,20.8,4.2,21.4,4.3c0,0,0.1,0,0.1,0c0.5,0,0.9-0.4,1-0.9
		c0.1-0.5-0.3-1.1-0.8-1.1c-0.1,0-14.9-2.1-21.1-4.2c-3.4-1.1-4.8-5.3-5.3-8.3c0.2-1.8,0.2-3.2,0-4.6c0.9-2.8,2.8-7.3,5.5-8.7
		c4.5-2.2,8.8-10.7,9-11.1l0.2-0.4c0.1,0,0.1,0,0.1,0c0.5-0.1,0.9-0.6,0.8-1.2c0-0.2-0.1-0.3-0.2-0.4l11.9-27.7l7.9-19.8
		C359.2,272.5,362.7,276.7,366.1,278.4z M368.4,252.3c2-1.2,4.3-2.2,6.8-3.1c-3.6,2-6.2,7-6.2,12.9c0,7.6,4.3,13.8,9.5,13.8
		s9.5-6.2,9.5-13.8s-4.3-13.8-9.5-13.8c-0.2,0-0.4,0-0.6,0c5.6-1.5,12.1-2.3,19.7-2.3c3.3,0,4.5,3.1,5,4.9c1.6,6.8-2,17-9.7,20.8
		c-12.3,6.1-21.9,6.8-26,4.8c-4-2-8.6-8.6-8.6-8.7c0,0,0,0,0,0C358.5,265.6,359.7,257.5,368.4,252.3z M378.5,250.3
		c4.1,0,7.5,5.3,7.5,11.8s-3.4,11.8-7.5,11.8s-7.5-5.3-7.5-11.8S374.4,250.3,378.5,250.3z M258.9,272.9c-8.9-5.3-10-20.6-10.1-24
		c3.6-1.3,20.9-7.1,28,0c6.3,6.3,13.8,14.8,16,25.1C286.8,278,269.2,279.1,258.9,272.9z M327,329.2c-2.7,1.4-4.6,4.9-5.7,7.7
		c-1-1.4-2.5-2.8-5-4.4c-4.8-3.2-11-10.3-13.5-13.3c5.5-0.6,16-1.3,18.9,0.1c1.6,0.8,3.9,1,6.2,1c2.4,0,4.9-0.3,6.7-0.5
		C333.2,322.5,330,327.8,327,329.2z"/>
	<path d="M258.5,262.1c0,7.6,5.2,13.8,11.6,13.8s11.6-6.2,11.6-13.8s-5.2-13.8-11.6-13.8S258.5,254.5,258.5,262.1z M279.7,262.1
		c0,6.5-4.3,11.8-9.6,11.8s-9.6-5.3-9.6-11.8s4.3-11.8,9.6-11.8S279.7,255.6,279.7,262.1z"/>
	<path d="M444.6,353.3c-5.2-11.1-16.5-19.8-32-24.6c-2.2-0.7-4.4-1.2-6.7-1.8c17.5-20,28.1-46.3,28.1-75c0-19.7-5-38.2-13.8-54.4
		c0.2-0.1,0.4-0.4,0.5-0.7L443,84.3L375.3,152c-0.1,0.1-0.1,0.1-0.2,0.2c-16.3-9-35.1-14.2-55.1-14.2c-12.3,0-24.1,1.9-35.2,5.5
		c-0.1-0.2-0.1-0.3-0.3-0.4l-59.5-54.9v99.2c0,0.3,0.2,0.6,0.4,0.8C213.2,206.4,206,228.4,206,252c0,27.9,10.1,53.5,26.7,73.4
		c-1.7,0.4-3.3,0.9-5,1.4c-15.5,4.8-26.9,13.6-32,24.6c-0.2,0.5,0,1.1,0.5,1.3c0.1,0.1,0.3,0.1,0.4,0.1c0.4,0,0.7-0.2,0.9-0.6
		c5.7-12.3,19.4-21.1,36.7-25.1c2.3,2.6,4.7,5.1,7.2,7.5c-3.9,1.4-7.6,2.9-11.2,4.8c-16.9,8.6-28.8,21.8-33.7,37.1
		c-0.2,0.5,0.1,1.1,0.7,1.3c0.1,0,0.2,0,0.3,0c0.4,0,0.8-0.3,1-0.7c4.7-14.8,16.3-27.6,32.7-36c3.8-1.9,7.8-3.6,11.9-5
		c3,2.8,6.2,5.3,9.5,7.8c-4.9,2-9.5,4.5-13.8,7.3c-14.3,9.5-23.6,22.5-26.4,36.7c-0.1,0.5,0.2,1.1,0.8,1.2c0.1,0,0.1,0,0.2,0
		c0.5,0,0.9-0.3,1-0.8c3.7-18.8,19.2-34.5,40.2-43c3.6,2.5,7.3,4.8,11.2,6.9c-6.6,3.2-12.6,7.2-17.7,11.9
		c-10.6,9.7-16.6,21.7-17,33.8c0,0.6,0.4,1,1,1c0,0,0,0,0,0c0.5,0,1-0.4,1-1c0.6-18.2,14.6-35.2,35-44.6c15.6,8,33.3,12.5,52,12.5
		c18,0,35-4.2,50.1-11.6c21.6,9.2,36.7,26.8,37.3,45.6c0,0.5,0.5,1,1,1c0,0,0,0,0,0c0.6,0,1-0.5,1-1c-0.4-12.1-6.4-24.1-17-33.8
		c-5.7-5.2-12.4-9.6-19.9-12.9c3.9-2,7.7-4.3,11.3-6.7c22.1,8.3,38.5,24.4,42.3,43.8c0.1,0.5,0.5,0.8,1,0.8c0.1,0,0.1,0,0.2,0
		c0.5-0.1,0.9-0.6,0.8-1.2c-2.8-14.2-12.2-27.3-26.4-36.7c-4.8-3.2-10.1-5.9-15.8-8.1c3.3-2.4,6.5-4.9,9.6-7.6
		c4.8,1.5,9.4,3.4,13.8,5.6c16.4,8.4,28,21.2,32.7,36c0.1,0.4,0.5,0.7,1,0.7c0.1,0,0.2,0,0.3,0c0.5-0.2,0.8-0.7,0.7-1.3
		c-4.8-15.3-16.8-28.5-33.7-37.1c-4.1-2.1-8.5-3.9-13-5.4c2.5-2.3,4.9-4.7,7.2-7.3c18.2,3.8,32.5,12.7,38.5,25.5
		c0.2,0.4,0.5,0.6,0.9,0.6c0.1,0,0.3,0,0.4-0.1C444.6,354.4,444.8,353.8,444.6,353.3z M439.7,90.4l-20.8,105
		c-10-17.5-24.6-32.1-42.1-42.2L439.7,90.4z M227.1,92.8l55.7,51.4c-22.7,7.8-42.1,22.6-55.7,41.7V92.8z M399.2,331.2
		c-1.4,1.4-2.9,2.8-4.3,4.1c-13.6-4.1-28.6-5.4-43.6-3.7c-2.7,0.3-5.3,0.7-8,1.2c-0.5,0.1-0.9,0.6-0.8,1.2c0.1,0.5,0.6,0.9,1.2,0.8
		c2.6-0.5,5.2-0.9,7.8-1.2c14.3-1.6,28.6-0.4,41.6,3.3c-3.1,2.7-6.3,5.1-9.6,7.4c-10.5-3.8-21.9-5.8-33.7-5.8
		c-2.4,0-4.9,0.1-7.3,0.3c-0.6,0-1,0.5-0.9,1.1c0,0.6,0.5,0.9,1.1,0.9c2.3-0.2,4.7-0.2,7.1-0.2c11.1,0,21.8,1.9,31.5,5.2
		c-3.7,2.4-7.4,4.6-11.3,6.5c-5.9-2.4-12.1-4.2-18.6-5.3c-2-0.3-4-0.6-6.1-0.8c-0.6-0.1-1,0.4-1.1,0.9c-0.1,0.5,0.4,1,0.9,1.1
		c2,0.2,4,0.4,5.9,0.8c5.8,0.9,11.3,2.5,16.5,4.5c-14.7,6.9-30.9,10.6-47.6,10.6c-17.5,0-34.4-4-49.7-11.6
		c5.9-2.5,12.2-4.4,18.9-5.5c2-0.3,3.9-0.6,5.9-0.8c0.5-0.1,1-0.5,0.9-1.1s-0.5-1-1.1-0.9c-2,0.2-4,0.5-6.1,0.8
		c-7.3,1.2-14.4,3.3-20.9,6.2c-3.8-2-7.6-4.3-11.2-6.7c10.3-3.8,21.7-6,33.7-6c2.4,0,4.8,0.1,7.1,0.2c0.6,0,1-0.4,1.1-0.9
		s-0.4-1-0.9-1.1c-2.4-0.2-4.8-0.3-7.3-0.3c-12.5,0-24.8,2.3-35.7,6.6c-3.3-2.4-6.4-4.9-9.5-7.6c13.5-4.2,28.5-5.6,43.5-3.9
		c2.6,0.3,5.3,0.7,7.8,1.2c0.5,0.1,1.1-0.3,1.2-0.8c0.1-0.5-0.3-1.1-0.8-1.2c-2.6-0.5-5.3-0.9-8-1.2c-15.7-1.8-31.4-0.2-45.5,4.3
		c-0.9-0.9-1.9-1.8-2.8-2.7c-1.5-1.5-2.9-3-4.3-4.6c13.1-2.7,28.2-2.7,43.5,0.6c2.3,0.5,4.6,1,6.9,1.7c0.5,0.2,1.1-0.2,1.2-0.7
		c0.1-0.5-0.2-1.1-0.7-1.2c-2.3-0.6-4.6-1.2-7-1.7c-15.7-3.3-31.6-3.4-45.5-0.4C217.5,304.6,208,279,208,252
		c0-29.9,11.7-58,32.8-79.2C262,151.7,290.1,140,320,140s58,11.7,79.2,32.8C420.3,194,432,222.1,432,252c0,27.7-10,53.9-28.4,74.5
		c-13.5-2.6-28.7-2.4-43.8,0.8c-2.3,0.5-4.7,1.1-7,1.7c-0.5,0.1-0.8,0.7-0.7,1.2c0.1,0.5,0.7,0.8,1.2,0.7c2.3-0.6,4.6-1.2,6.9-1.7
		c14.6-3.1,29-3.2,41.7-0.9C401.1,329.3,400.2,330.2,399.2,331.2z"/>
</g>
</svg>
